# xmcd
#
# Track frame offsets: 
#        150
#        17399
#        38456
#        53467
#        70002
#        86999
#        104464
#        115784
#        132609
#        156483
#        176030
#        184254
#        201233
#        219115
#
# Disc length: 3147 seconds
#
# Revision: 0
# Processed by: cddbd v1.5.2PL0 Copyright (c) Steve Scherf et al.
# Submitted via: ExactAudioCopyFreeDBPlugin 1.0
#
DISCID=bd0c490e
DTITLE=Enchantment - Journey to the Land Of...Enchantment
DYEAR=1979
DGENRE=R&B
TTITLE0=Future Gonna Get You
TTITLE1=Magnetic Feel
TTITLE2=Any Way You Want It
TTITLE3=Love Melodies
TTITLE4=Oasis of Love
TTITLE5=I Wanna Boogie
TTITLE6=Fun
TTITLE7=Let Me Entertain You
TTITLE8=Forever More
TTITLE9=Where Do We Go from Here?
TTITLE10=Journey
TTITLE11=Magnetic Feel (Original Single Version)
TTITLE12=Forever More (Original Single Version)
TTITLE13=Where Do We Go From Here (Original Single Version)
EXTD=
EXTT0=
EXTT1=
EXTT2=
EXTT3=
EXTT4=
EXTT5=
EXTT6=
EXTT7=
EXTT8=
EXTT9=
EXTT10=
EXTT11=
EXTT12=
EXTT13=
PLAYORDER=
